HIERARCHY
ROOT Hips
{
	OFFSET 0.00000 0.00000 0.00000
	CHANNELS 6 Xposition Yposition Zposition Zrotation Yrotation Xrotation 
	JOINT LHipJoint
	{
		OFFSET 0 0 0
		CHANNELS 3 Zrotation Yrotation Xrotation
		JOINT LeftUpLeg
		{
			OFFSET 3.13874 -1.57224 1.49786
			CHANNELS 3 Zrotation Yrotation Xrotation
			JOINT LeftLeg
			{
				OFFSET 2.10955 -5.79594 0.00000
				CHANNELS 3 Zrotation Yrotation Xrotation
				JOINT LeftFoot
				{
					OFFSET 2.41843 -6.64458 0.00000
					CHANNELS 3 Zrotation Yrotation Xrotation
					JOINT LeftToeBase
					{
						OFFSET 0.04713 -0.12948 1.66229
						CHANNELS 3 Zrotation Yrotation Xrotation
						End Site
						{
							OFFSET 0.00000 -0.00000 0.85167
						}
					}
				}
			}
		}
	}
	JOINT RHipJoint
	{
		OFFSET 0 0 0
		CHANNELS 3 Zrotation Yrotation Xrotation
		JOINT RightUpLeg
		{
			OFFSET -3.13988 -1.57224 1.49786
			CHANNELS 3 Zrotation Yrotation Xrotation
			JOINT RightLeg
			{
				OFFSET -2.15006 -5.90725 0.00000
				CHANNELS 3 Zrotation Yrotation Xrotation
				JOINT RightFoot
				{
					OFFSET -2.34496 -6.44273 0.00000
					CHANNELS 3 Zrotation Yrotation Xrotation
					JOINT RightToeBase
					{
						OFFSET -0.08699 -0.23900 1.55223
						CHANNELS 3 Zrotation Yrotation Xrotation
						End Site
						{
							OFFSET -0.00000 -0.00000 0.80281
						}
					}
				}
			}
		}
	}
	JOINT LowerBack
	{
		OFFSET 0 0 0
		CHANNELS 3 Zrotation Yrotation Xrotation
		JOINT Spine
		{
			OFFSET 0.01292 1.96517 -0.16495
			CHANNELS 3 Zrotation Yrotation Xrotation
			JOINT Spine1
			{
				OFFSET 0.02122 1.88666 0.19706
				CHANNELS 3 Zrotation Yrotation Xrotation
				JOINT Neck
				{
					OFFSET 0 0 0
					CHANNELS 3 Zrotation Yrotation Xrotation
					JOINT Neck1
					{
						OFFSET -0.01683 1.81591 0.07903
						CHANNELS 3 Zrotation Yrotation Xrotation
						JOINT Head
						{
							OFFSET 0.00815 1.74013 -0.47700
							CHANNELS 3 Zrotation Yrotation Xrotation
							End Site
							{
								OFFSET -0.00204 1.83225 -0.16933
							}
						}
					}
				}
				JOINT LeftShoulder
				{
					OFFSET 0 0 0
					CHANNELS 3 Zrotation Yrotation Xrotation
					JOINT LeftArm
					{
						OFFSET 3.38482 1.41533 0.19802
						CHANNELS 3 Zrotation Yrotation Xrotation
						JOINT LeftForeArm
						{
							OFFSET 4.32712 -0.00000 0.00000
							CHANNELS 3 Zrotation Yrotation Xrotation
							JOINT LeftHand
							{
								OFFSET 3.28587 -0.00000 -0.00000
								CHANNELS 3 Zrotation Yrotation Xrotation
								JOINT LeftFingerBase
								{
									OFFSET 0 0 0
									CHANNELS 3 Zrotation Yrotation Xrotation
									JOINT LeftHandIndex1
									{
										OFFSET 0.43316 -0.00000 -0.00000
										CHANNELS 3 Zrotation Yrotation Xrotation
										End Site
										{
											OFFSET 0.34922 -0.00000 -0.00000
										}
									}
								}
								JOINT LThumb
								{
									OFFSET 0 0 0
									CHANNELS 3 Zrotation Yrotation Xrotation
									End Site
									{
										OFFSET 0.35456 -0.00000 0.35456
									}
								}
							}
						}
					}
				}
				JOINT RightShoulder
				{
					OFFSET 0 0 0
					CHANNELS 3 Zrotation Yrotation Xrotation
					JOINT RightArm
					{
						OFFSET -3.09725 1.62858 -0.14144
						CHANNELS 3 Zrotation Yrotation Xrotation
						JOINT RightForeArm
						{
							OFFSET -4.29104 -0.00000 0.00000
							CHANNELS 3 Zrotation Yrotation Xrotation
							JOINT RightHand
							{
								OFFSET -3.22720 -0.00000 -0.00000
								CHANNELS 3 Zrotation Yrotation Xrotation
								JOINT RightFingerBase
								{
									OFFSET 0 0 0
									CHANNELS 3 Zrotation Yrotation Xrotation
									JOINT RightHandIndex1
									{
										OFFSET -0.54362 -0.00000 -0.00000
										CHANNELS 3 Zrotation Yrotation Xrotation
										End Site
										{
											OFFSET -0.43828 -0.00000 -0.00000
										}
									}
								}
								JOINT RThumb
								{
									OFFSET 0 0 0
									CHANNELS 3 Zrotation Yrotation Xrotation
									End Site
									{
										OFFSET -0.44497 -0.00000 0.44497
									}
								}
							}
						}
					}
				}
			}
		}
	}
}
MOTION
Frames: 9
Frame Time: .0083333
-39.8141 16.2688 1.3554 0 0 0 0 0 0 -21 0 0 0 0 0 0 0 0 0 0 0 0 0 0 21 0 0 0 0 0 0 0 0 0 0 0 0 0 0 0 0 0 0 0 0 0 0 -16 0 0 21 0 0 11 0 0 0 -8 0 0 0 0 0 0 0 0 0 0 0 0 0 0 0 0 0 0 0 0 8 0 0 0 0 0 0 0 0 0 0 0 0 0 0 0 0 0
-39.8141 16.2688 1.3554 -168.9920 74.0420 -158.7050 0.0000 0.0000 0.0000 -27.9540 -31.8227 9.7385 0.0035 -0.3798 -1.0435 1.5324 -7.2841 -22.1606 1.3217 -7.2810 -20.5507 0.0000 0.0000 0.0000 40.0065 26.0393 17.7534 -0.2524 3.2329 -8.9278 -5.4815 -13.9369 -50.0017 -2.4791 -9.7999 28.3310 6.9307 5.2130 8.4253 -2.7311 8.5964 -12.1693 -8.9545 3.0400 -17.1871 14.6029 5.8382 -15.9940 -3.2518 8.2733 40.1601 -2.0894 6.0656 18.7302 0.0000 -0.0000 0.0000 -71.1681 16.5337 44.1036 19.7545 -30.3454 -5.4068 -0.0000 -0.0000 3.1630 46.1246 35.6857 31.2452 -7.1250 0.0000 -0.0000 24.8375 74.8119 17.7131 0.0000 -0.0000 0.0000 85.9156 -26.4095 26.1273 -16.3653 26.0135 -3.8048 0.0000 -0.0000 -10.2262 -23.6587 -21.8404 9.2570 7.1250 -0.0000 -0.0000 5.3979 -53.5321 -1.1352
-39.8124 16.2681 1.3612 -169.2020 74.2672 -158.8200 0.0000 0.0000 0.0000 -27.9521 -31.7813 9.4539 0.0023 -0.3068 -0.8429 1.5083 -7.6280 -21.9772 1.1040 -6.6762 -18.7597 0.0000 0.0000 0.0000 39.9307 26.2679 17.7782 -0.2517 3.2284 -8.9153 -5.5005 -13.7928 -49.9988 -2.4893 -9.8183 28.3904 7.2773 5.2125 8.7727 -3.1630 8.6504 -12.3458 -9.7369 2.9435 -17.5266 14.5901 5.8565 -16.0385 -2.5477 7.9743 40.1092 -1.8153 6.0320 18.6312 0.0000 -0.0000 0.0000 -70.2166 16.6386 44.9469 19.8489 -30.4598 -5.4545 -0.0000 -0.0000 2.5536 42.0281 34.3933 26.9812 -7.1250 0.0000 -0.0000 15.6525 72.1099 10.1596 0.0000 -0.0000 0.0000 86.6859 -26.5145 25.9436 -16.3175 25.9492 -3.7838 0.0000 -0.0000 -10.2807 -23.6627 -21.8183 9.2500 7.1250 -0.0000 -0.0000 5.3867 -53.5097 -1.1298
-39.8091 16.2684 1.3630 -169.6930 74.4127 -159.1610 0.0000 0.0000 0.0000 -28.0389 -31.7830 9.2305 0.0019 -0.2839 -0.7800 1.4970 -7.7340 -21.8927 1.0426 -6.4938 -18.2242 0.0000 0.0000 0.0000 39.7452 26.4325 17.7100 -0.2509 3.2233 -8.9011 -5.5271 -13.6800 -50.0400 -2.5135 -9.8625 28.5325 7.6071 5.1459 8.9998 -3.5479 8.5987 -12.4493 -10.4142 2.8159 -17.7256 14.6374 5.9431 -16.2475 -2.1902 7.8689 40.0644 -1.6703 6.0298 18.6334 -0.0000 0.0000 0.0000 -69.5201 16.6033 45.3985 19.8610 -30.4745 -5.4607 -0.0000 -0.0000 2.1263 38.2798 32.9887 23.2526 -7.1250 0.0000 -0.0000 9.2193 69.3656 5.3952 -0.0000 0.0000 0.0000 87.2696 -26.5241 26.0388 -16.3374 25.9761 -3.7926 0.0000 -0.0000 -10.3759 -23.6574 -21.7985 9.2399 7.1250 -0.0000 -0.0000 5.3858 -53.4879 -1.1268
-39.8029 16.2664 1.3621 -170.0270 74.4953 -159.4020 0.0000 0.0000 0.0000 -28.1616 -31.8239 9.1805 0.0022 -0.3006 -0.8260 1.5000 -7.9346 -21.9160 0.9731 -6.2800 -17.5990 0.0000 0.0000 0.0000 39.6333 26.5137 17.6929 -0.2523 3.2319 -8.9252 -5.4466 -14.0650 -49.9385 -2.4308 -9.7109 28.0456 8.0283 4.9978 9.1750 -3.8381 8.4465 -12.4644 -10.9961 2.6482 -17.8062 14.6856 6.1135 -16.4376 -2.0744 7.9802 39.9272 -1.5975 6.0701 18.6161 0.0000 -0.0000 0.0000 -69.0857 16.6387 45.2373 19.9136 -30.5381 -5.4874 -0.0000 -0.0000 2.0281 34.5736 31.4693 19.7876 -7.1250 0.0000 -0.0000 4.0922 66.5621 2.1284 0.0000 -0.0000 0.0000 87.6865 -26.4108 26.2229 -16.3534 25.9974 -3.7995 0.0000 -0.0000 -10.2874 -23.6915 -21.6674 9.2026 7.1250 -0.0000 -0.0000 5.3093 -53.3561 -1.0936
-39.7938 16.2644 1.3610 -170.1720 74.5938 -159.5050 0.0000 0.0000 0.0000 -28.2336 -31.7205 9.1020 0.0025 -0.3207 -0.8813 1.4941 -7.7972 -21.8712 0.9153 -6.0957 -17.0624 0.0000 0.0000 0.0000 39.6047 26.5910 17.7471 -0.2532 3.2378 -8.9414 -5.4157 -14.1677 -49.8779 -2.4154 -9.6825 27.9546 8.5456 4.8698 9.4938 -4.1740 8.3638 -12.5629 -11.7431 2.4720 -18.0669 14.6874 6.1992 -16.5496 -1.7018 7.9111 39.8833 -1.4334 6.0825 18.5932 0.0000 0.0000 0.0000 -68.4435 16.8666 45.3205 20.0145 -30.6598 -5.5388 -0.0000 -0.0000 1.8306 30.9844 29.8556 16.6432 -7.1250 0.0000 -0.0000 -0.0725 63.7833 -0.0330 0.0000 0.0000 0.0000 88.3187 -26.4711 26.1387 -16.3423 25.9826 -3.7947 0.0000 -0.0000 -10.0879 -23.7293 -21.5494 9.1717 7.1250 -0.0000 -0.0000 5.2336 -53.2388 -1.0629
-39.7856 16.2648 1.3601 -170.2240 74.7267 -159.5080 0.0000 0.0000 0.0000 -28.2423 -31.5787 8.9545 0.0027 -0.3380 -0.9286 1.4917 -7.2459 -21.8579 0.9281 -6.1371 -17.1826 0.0000 0.0000 0.0000 39.5878 26.7308 17.7632 -0.2514 3.2262 -8.9092 -5.3676 -14.4369 -49.8399 -2.3796 -9.6156 27.7407 9.5468 4.7657 10.3369 -5.0367 8.4646 -13.2264 -13.4664 2.2173 -18.6279 15.0806 6.0937 -16.5759 -0.9526 7.3099 39.9804 -1.2654 6.0233 18.5848 0.0000 0.0000 0.0000 -66.5764 17.3159 46.4811 20.2003 -30.8829 -5.6338 -0.0000 -0.0000 1.1696 24.3947 26.7011 11.5179 -7.1250 0.0000 -0.0000 -6.4775 58.7737 -2.1868 0.0000 0.0000 0.0000 90.1049 -26.9185 25.3319 -16.3321 25.9689 -3.7902 0.0000 -0.0000 -9.7397 -23.7024 -21.5418 9.1573 7.1250 -0.0000 -0.0000 5.2587 -53.2259 -1.0664
-39.7811 16.2641 1.3593 -169.8640 74.8881 -159.0950 0.0000 0.0000 0.0000 -28.1044 -31.4491 8.7397 0.0030 -0.3510 -0.9643 1.4859 -7.1743 -21.8161 0.8481 -5.8736 -16.4182 0.0000 0.0000 0.0000 39.6550 26.9770 17.6971 -0.2448 3.1838 -8.7908 -5.1867 -15.3476 -49.6591 -2.2000 -9.2707 26.6458 9.4324 4.8004 9.9814 -4.8716 8.4411 -13.0358 -13.1016 2.2981 -18.1939 15.1068 6.1022 -16.6697 -1.2583 7.3512 39.7765 -1.4135 5.9723 18.5095 -0.0000 0.0000 0.0000 -66.9501 17.0366 46.2381 20.1358 -30.8056 -5.6007 -0.0000 -0.0000 1.1090 24.6694 26.7279 11.6716 -7.1250 0.0000 -0.0000 -6.1835 58.8656 -2.1007 -0.0000 0.0000 0.0000 89.7374 -26.5337 25.6510 -16.3771 26.0292 -3.8099 0.0000 -0.0000 -9.8890 -23.5586 -21.6332 9.1321 7.1250 -0.0000 -0.0000 5.4348 -53.2949 -1.1114
-39.7748 16.2637 1.3597 -169.3180 75.0387 -158.5150 0.0000 0.0000 0.0000 -27.9241 -31.3566 8.6251 0.0027 -0.3340 -0.9176 1.4845 -7.5900 -21.8000 0.7195 -5.4205 -15.1119 0.0000 0.0000 0.0000 39.7900 27.2136 17.6642 -0.2379 3.1387 -8.6652 -5.0797 -15.7562 -49.4907 -2.1168 -9.1053 26.1253 9.6262 4.8308 9.8333 -4.8073 8.4905 -12.7259 -13.2298 2.2836 -18.2714 15.1496 6.0895 -16.6804 -1.3993 7.3445 39.6889 -1.4928 5.9458 18.4696 0.0000 0.0000 0.0000 -67.0313 16.9421 46.0570 20.0577 -30.7118 -5.5608 -0.0000 -0.0000 1.2047 24.8091 26.9562 11.8348 -7.1250 0.0000 -0.0000 -6.1317 59.1356 -2.1227 0.0000 0.0000 0.0000 89.7135 -26.4690 25.8246 -16.4401 26.1137 -3.8376 0.0000 -0.0000 -9.9679 -23.4483 -21.6818 9.1040 7.1250 -0.0000 -0.0000 5.5635 -53.3252 -1.1420
